<svg data-animate-y-space="200" data-animate-y-space2="12" viewBox="0 0 1789.13 1658.87" xmlns="http://www.w3.org/2000/svg">
    <g data-move="up" class="group1" strokeoff="blue" style="transform: translateY(-11.1695%);">
        <path fill="#fdef93" d="M761.52,1017l-6.28,336,175.61,41.63-1.16-318.58Z"></path>
        <path fill="#f4d530" d="M598.18,1384.74,755.24,1353l175.61,41.63-155.26,28.23Z"></path>
        <path fill="#fbe536" d="M761.42,1018.15,755.24,1353l-157.06,31.72,12.41-322.51Z"></path>
    </g>
    <g class="group2" strokeoff="green">
        <path fill="#f4d530" d="M122.6,1397.22l197.12,36.08-124.26,25.57L0,1425.78Z"></path>
        <path fill="#fdef93" d="M153.63,1082.25l-31,315,197.12,36.08,22-299.7Z"></path>
        <path fill="#ffed00" d="M34.41,1122.87l119.22-40.62-31,315L0,1425.78Z"></path>
    </g>
    <g data-move="down" class="group3" strokeoff="blue" style="transform: translateY(11.1695%);">
        <path fill="#f4d530" d="M315.14,1352.38l198.85,40-140.42,29.88L175.25,1385Z"></path>
        <path fill="#fdef93" d="M340,1018.75l189.2,58.06L514,1392.34l-198.85-40Z"></path>
        <path fill="#ffed00" d="M204.71,1064.85,340,1018.75l-24.9,333.62L175.25,1385Z"></path>
    </g>
    <g class="group4" strokeoff="green">
        <path fill="#f4d530" d="M577.42,1380.28,734.17,1348l-198.4-47-157,36.58Z"></path>
        <path fill="#fdef93" d="M567.46,625.07l180.42,81.22L734.17,1348l-198.4-47Z"></path>
        <path fill="#ffed00" d="M378.72,1337.57l157-36.58,31.72-676.66L422,688.7Z"></path>
    </g>
    <g data-move="up" class="group5" strokeoff="blue" style="transform: translateY(-11.1695%);">
        <path fill="#fdef93" d="M989.73,440.36l175,102.16L1191.24,1254l-192-60.92Z"></path>
        <path fill="#f4d530" d="M999.2,1193.06l192,60.91-204.35,42L791,1241.55Z"></path>
        <path fill="#ffed00" d="M791,1241.55l208.2-48.49-8.92-754-189,83.69Z"></path>
    </g>
    <g class="group6" strokeoff="green">
        <path fill="#fdef93" d="M1537.82,200l158.06,133.8,93.25,797.2-169.39-82.42Z"></path>
        <path fill="#f4d530" d="M1789.13,1131l-269,55.35-182.32-72.11,282-65.6Z"></path>
        <path fill="#ffed00" d="M1291.35,308l246.47-108,81.92,848.53-281.9,65.66Z"></path>
    </g>
    <g data-move="down" class="group7" strokeoff="blue" style="transform: translateY(11.1695%);">
        <path fill="#fdef93" d="M1355.84,445.85l201.32,137.24,42.52,455-211.82-100.9Z"></path>
        <path fill="#f4d530" d="M1094.16,1017.8l293.7-80.58,211.82,100.9-283.61,67.46Z"></path>
        <path fill="#ffed00" d="M1094.16,1017.8l293.71-80.57-32-491.38L1082.35,554.32Z"></path>
    </g>
</svg>