<?xml version="1.0" encoding="utf-8"?>
<!-- Generator: Adobe Illustrator 27.2.0, SVG Export Plug-In . SVG Version: 6.00 Build 0)  -->
<svg version="1.1" id="Ebene_1" xmlns="http://www.w3.org/2000/svg" xmlns:xlink="http://www.w3.org/1999/xlink" x="0px" y="0px"
	 viewBox="0 0 754.02 223.69" style="enable-background:new 0 0 754.02 223.69;" xml:space="preserve">
<style type="text/css">
	.st0{fill:#AB2328;}
</style>
<g>
	<path class="st0" d="M278.01,8.5c55.36,0,93.4,37.19,93.4,103.34s-38.04,103.34-93.4,103.34S184.9,178,184.9,111.85
		S222.65,8.5,278.01,8.5z M278.01,172.03c28.39,0,47.41-19.58,47.41-59.9c0-40.88-19.03-60.47-47.41-60.47s-47.41,19.87-47.41,59.91
		C230.6,152.16,249.62,172.03,278.01,172.03z"/>
	<path class="st0" d="M700.67,87.15c0,0.29-0.58,27.54-0.58,72.97v51.1h18.88c9.71-0.09,26.17-9.48,26.55-28.74v-170H696.4
		l-41.74,87.73h-1.13l-42.3-87.73h-51.1v169.55c0.11,19.57,16.8,29.09,26.59,29.18h18.26v-51.1c0-45.42-0.86-72.68-0.86-72.97h1.14
		c0.28,0.29,7.94,19.3,16.75,38.62l17.03,38.04h26.98l17.04-38.33c8.52-18.74,16.46-38.04,16.75-38.33h0.86V87.15z"/>
	<path class="st0" d="M136.54,105.32v-1.13c11.07-3.69,25.27-16.75,25.27-40.32c0-28.68-22.42-51.39-57.63-51.39H82.94H55.3
		c-9.8,0-26.77,9.58-26.77,29.39V82.8c0,14.58-13.07,19.58-20.03,19.58v18.94c6.97,0,20.03,4.79,20.03,18.07v42.44
		c0,19.8,16.96,29.39,26.77,29.39h27.63h21.8c46,0,66.44-24.99,66.44-56.77C171.18,126.04,154.43,110.99,136.54,105.32z M96.8,50.81
		c13.06,0,20.44,8.23,20.44,20.16c0,12.21-7.66,20.16-19.87,20.16H73.8V50.81H96.8z M101.34,172.89H73.8v-47.41h27.25
		c14.19,0,23.28,9.08,23.28,24.41C124.33,163.52,116.67,172.89,101.34,172.89z"/>
	<path class="st0" d="M501.27,133.99c21.58-8.8,33.5-28.68,33.5-54.8c0-40.3-25.83-66.71-72.1-66.71h-15.45v0.01h-27.63
		c-9.79,0-26.72,9.57-26.76,29.32v169.41h45.42v-67.57h9.37l8.23-0.28l32.93,67.85h52.81L501.27,133.99z M464.08,106.74h-25.83
		V54.22h25.27c16.75,0,25.27,9.94,25.27,26.69C488.78,98.22,479.69,106.74,464.08,106.74z"/>
</g>
</svg>
