<?xml version="1.0" encoding="UTF-8"?>
<svg xmlns="http://www.w3.org/2000/svg" viewBox="0 0 85.14 25.69" width="86" height="26">
  <defs>
    <style>.cls-1,.cls-2{fill:#002965;}.cls-2{fill-rule:evenodd;}</style>
  </defs>
  <title>DresoLogo</title>
  <path class="cls-1" d="M9.92,25.21v1.2l2.27-.53V25.71c0-1.9-.77-2.42-2.74-2.42H3.19c-2.07,0-2.74.53-2.74,2.61v1.22c0,2.07.66,2.61,2.74,2.61h6.89v2.52H2.27V31.06L0,31.53v0.18c0,2.07.68,2.61,2.76,2.61H9.58c2.07,0,2.76-.53,2.76-2.61V30.2c0-2.07-.68-2.61-2.76-2.61H2.69V25.21H9.92Z" transform="translate(0 -8.63)"></path>
  <path class="cls-2" d="M15,27.42v4.77c0,1.71.57,2.14,2.4,2.14h7.13c1.81,0,2.4-.43,2.4-2.14V27.42c0-1.73-.59-2.14-2.4-2.14H17.38c-1.81,0-2.4.41-2.4,2.14h0Zm2.31,5.17V26.95h7.44v5.64H17.29Z" transform="translate(0 -8.63)"></path>
  <polygon class="cls-1" points="29.75 25.69 31.82 25.69 31.82 19.62 35.98 24.6 36.42 24.6 40.54 19.47 40.54 25.69 42.63 25.69 42.63 16.65 40.82 16.65 36.33 22.02 31.82 16.65 29.75 16.65 29.75 25.69 29.75 25.69"></polygon>
  <polygon class="cls-1" points="45.68 25.69 47.74 25.69 47.74 19.62 51.91 24.6 52.34 24.6 56.46 19.47 56.46 25.69 58.56 25.69 58.56 16.65 56.75 16.65 52.26 22.02 47.74 16.65 45.68 16.65 45.68 25.69 45.68 25.69"></polygon>
  <polygon class="cls-1" points="61.5 25.69 71.51 25.69 71.51 24 63.77 24 63.77 21.78 68.22 21.78 68.22 20.22 63.77 20.22 63.77 18.25 71.4 18.25 71.4 16.65 61.5 16.65 61.5 25.69 61.5 25.69"></polygon>
  <path class="cls-2" d="M73.83,34.32H76V30.9h2.07l3.78,3.42H85l-4.3-3.42H82c1.45,0,2.12-.49,2.12-1.73V27c0-1.26-.66-1.75-2.12-1.75H73.83v9h0ZM81,26.84c0.66,0,1,.13,1,0.73v1c0,0.6-.34.73-1,0.73H76v-2.5h5Z" transform="translate(0 -8.63)"></path>
  <path class="cls-2" d="M0.36,19.66H6.8a8.7,8.7,0,0,0,4.53-.86,5.34,5.34,0,0,0,2.44-4.73c0-3.42-2.18-5.45-6.31-5.45H0.36v11h0Zm2.57-2.07v-7H7.48c2.42,0,3.64,1.2,3.64,3.44,0,2.74-1.63,3.55-4.88,3.55H2.93Z" transform="translate(0 -8.63)"></path>
  <path class="cls-2" d="M16.38,19.66h2.18V16.24h2.07l3.78,3.42h3.16l-4.3-3.42h1.24c1.45,0,2.12-.49,2.12-1.73V12.37c0-1.26-.66-1.75-2.12-1.75H16.38v9h0Zm7.21-7.48c0.66,0,1,.13,1,0.73v1c0,0.6-.34.73-1,0.73h-5v-2.5h5Z" transform="translate(0 -8.63)"></path>
  <polygon class="cls-1" points="29.68 11.03 39.49 11.03 39.49 9.34 31.9 9.34 31.9 7.12 36.26 7.12 36.26 5.56 31.9 5.56 31.9 3.59 39.38 3.59 39.38 1.99 29.68 1.99 29.68 11.03 29.68 11.03"></polygon>
  <polygon class="cls-1" points="42.04 11.03 51.86 11.03 51.86 9.34 44.27 9.34 44.27 7.12 48.63 7.12 48.63 5.56 44.27 5.56 44.27 3.59 51.75 3.59 51.75 1.99 42.04 1.99 42.04 11.03 42.04 11.03"></polygon>
  <path class="cls-1" d="M62.64,12.24v0.85l1.9-.41v-0.1c0-1.58-.71-2-2.37-2H56.8c-1.77,0-2.37.43-2.37,2.14v1c0,1.71.6,2.14,2.37,2.14h5.86V18H56V17l-2,.36v0.14c0,1.69.58,2.14,2.37,2.14h5.88c1.8,0,2.35-.45,2.35-2.14V16.28c0-1.71-.56-2.14-2.35-2.14H56.41v-1.9h6.22Z" transform="translate(0 -8.63)"></path>
  <path class="cls-2" d="M73,19.66h3.93A2.53,2.53,0,0,0,79,19l1-.88,1.82,1.54h3.36l-3.49-2.93,2.54-2.12-1.45-1.26-2.57,2.14L75,11.17V10.38H78.6v1.48l2-.34V10.85c0-1.8-.75-2.22-2.74-2.22H75.63c-1.88,0-2.74.43-2.74,2v0.62a2.1,2.1,0,0,0,.94,1.67l-2.24,1.35c-1,.58-1.37.92-1.37,2.05v0.73c0,2.07.68,2.61,2.76,2.61h0Zm-0.6-1.92V15.86L75.2,14.1l3.31,2.76-1,.88H72.38Z" transform="translate(0 -8.63)"></path>
</svg>
