<?xml version='1.0' encoding='UTF-8'?>
<svg width="146" height="47" viewBox="0 0 146 47" fill="none" xmlns="http://www.w3.org/2000/svg" id="svg1367429210_16292">
    <g clip-path="url(#svg1367429210_16292_clip0_3780_4926)">
        <path d="M51.4476 23.0901V9.87504H47.2891V8.40039H57.181V9.88086H53.0627V23.0959L51.4476 23.0901Z" fill="#BCF124"></path>
        <path d="M58.957 23.0901V8.40039H60.4708V14.5741L60.1267 14.4955C60.3799 13.8324 60.8435 13.2657 61.4498 12.8782C62.0832 12.478 62.8248 12.2722 63.5789 12.2872C64.303 12.2762 65.0172 12.453 65.6485 12.7996C66.2534 13.1346 66.7554 13.6217 67.1027 14.2102C67.4615 14.8236 67.6452 15.5199 67.6347 16.2264V23.0901H66.1238V16.797C66.1411 16.2308 66.0163 15.669 65.7603 15.1608C65.5339 14.7303 65.1872 14.3715 64.7605 14.1257C64.3219 13.8786 63.8229 13.7523 63.3167 13.7604C62.8078 13.7532 62.3061 13.8794 61.864 14.1257C61.4295 14.3725 61.076 14.735 60.8448 15.171C60.5832 15.674 60.4546 16.233 60.4708 16.797V23.0901H58.957Z" fill="#BCF124"></path>
        <path d="M73.6569 23.3256C73.0225 23.3368 72.3939 23.2053 71.8198 22.9413C71.3066 22.707 70.8672 22.3426 70.5473 21.8859C70.235 21.4315 70.0728 20.8945 70.0824 20.3472C70.0763 19.8231 70.2011 19.3054 70.446 18.8391C70.7107 18.3625 71.1012 17.9639 71.5769 17.6847C72.1779 17.3375 72.8433 17.1099 73.5347 17.0151L77.7692 16.3236V17.6658L73.8953 18.299C73.1146 18.431 72.5528 18.6736 72.2101 19.0269C71.8741 19.3643 71.6887 19.8182 71.6946 20.289C71.6926 20.5188 71.7434 20.7461 71.8432 20.9542C71.943 21.1622 72.0892 21.3458 72.2712 21.4914C72.6869 21.8328 73.2188 22.0089 73.7612 21.9849C74.4373 22.0002 75.1056 21.8405 75.6982 21.522C76.2373 21.2266 76.6839 20.7933 76.99 20.2686C77.3023 19.7343 77.4628 19.1282 77.4549 18.513V15.8316C77.464 15.5396 77.4051 15.2494 77.2828 14.9829C77.1605 14.7163 76.9778 14.4804 76.7486 14.2929C76.2778 13.8979 75.6654 13.7004 74.9115 13.7004C74.3154 13.6881 73.7287 13.8458 73.223 14.1543C72.7173 14.4627 72.3146 14.9085 72.0641 15.4371L70.6918 14.7092C70.9134 14.2366 71.2408 13.8187 71.6499 13.4864C72.0976 13.1145 72.6064 12.8192 73.1548 12.6129C73.7141 12.3973 74.3102 12.2871 74.9115 12.2883C75.6418 12.2718 76.3659 12.4244 77.0243 12.7338C77.6111 13.0146 78.1071 13.4484 78.4576 13.9872C78.8027 14.5422 78.9775 15.1823 78.9612 15.8316V23.0898H77.4519V20.979L77.6739 21.1959C77.4667 21.6137 77.1669 21.9811 76.7963 22.2717C76.3803 22.6037 75.9091 22.8637 75.4032 23.0403C74.8429 23.2354 74.2517 23.332 73.6569 23.3256Z" fill="#BCF124"></path>
        <path d="M86.0116 23.2092C85.0431 23.2092 84.2981 22.9331 83.7766 22.3809C83.2551 21.8287 82.9909 21.0397 82.9839 20.0139V13.9974H80.9844V12.5184H81.4939C81.6974 12.5285 81.9007 12.4946 82.0892 12.4191C82.2778 12.3437 82.4469 12.2284 82.5846 12.0817C82.8581 11.7735 83.0024 11.3757 82.9884 10.9681V10.0801H84.5022V12.5257H86.8862V14.0047H84.5022V20.0212C84.4959 20.3407 84.5504 20.6587 84.6631 20.9587C84.7698 21.227 84.9655 21.4525 85.2189 21.5992C85.5428 21.7724 85.9095 21.8546 86.2783 21.8365C86.3855 21.8365 86.5137 21.8292 86.6627 21.8161C86.8117 21.803 86.9383 21.7899 87.0456 21.7768V23.0986C86.8662 23.1407 86.684 23.1704 86.5003 23.1874C86.2947 23.1991 86.1323 23.2092 86.0116 23.2092Z" fill="#BCF124"></path>
        <path d="M100.01 23.3259C98.9323 23.3353 97.8628 23.1415 96.8602 22.7552C95.4236 22.1985 94.1936 21.2293 93.3323 19.9756C92.471 18.722 92.0189 17.2426 92.0356 15.7328C92.0254 14.7042 92.2282 13.6842 92.6316 12.734C93.0174 11.8295 93.5872 11.0108 94.3063 10.3277C95.0357 9.63765 95.8961 9.09366 96.8393 8.72644C98.8799 7.96358 101.137 7.96358 103.178 8.72644C104.121 9.09289 104.982 9.63696 105.711 10.3277C106.43 11.0112 107 11.8297 107.387 12.734C107.79 13.6844 107.992 14.7043 107.983 15.7328C108 17.2427 107.548 18.7222 106.687 19.976C105.825 21.2297 104.595 22.1988 103.158 22.7552C102.156 23.1413 101.087 23.3351 100.01 23.3259ZM100.01 20.56C100.664 20.5657 101.313 20.445 101.919 20.2048C102.495 19.9737 103.019 19.635 103.462 19.2076C103.911 18.7743 104.262 18.2535 104.492 17.6791C104.74 17.0573 104.864 16.3945 104.855 15.727C104.864 15.0633 104.74 14.4043 104.492 13.7865C104.258 13.214 103.908 12.6939 103.462 12.258C103.023 11.8268 102.497 11.488 101.919 11.2623C100.69 10.8023 99.3312 10.8023 98.1028 11.2623C97.5237 11.4879 96.9979 11.8268 96.5577 12.258C96.1123 12.6943 95.762 13.2143 95.5281 13.7865C95.2791 14.4052 95.1556 15.0652 95.1646 15.7299C95.1562 16.3974 95.2797 17.0602 95.5281 17.682C95.7583 18.2562 96.109 18.7769 96.5577 19.2106C97.0014 19.638 97.5263 19.9767 98.1028 20.2077C98.7081 20.4489 99.3563 20.5706 100.01 20.5658V20.56Z" fill="#BCF124"></path>
        <path d="M109.984 27.2845V12.3211H112.815V14.3693L112.552 13.7768C112.921 13.2336 113.437 12.8004 114.042 12.5249C114.714 12.2192 115.45 12.0673 116.192 12.0809C117.194 12.0683 118.179 12.3279 119.039 12.8306C119.88 13.3226 120.575 14.0193 121.058 14.8526C121.561 15.7214 121.818 16.7051 121.803 17.7029C121.815 18.6961 121.561 19.675 121.067 20.543C120.592 21.3835 119.899 22.0865 119.057 22.581C118.184 23.0867 117.185 23.3457 116.171 23.3293C115.455 23.336 114.744 23.1988 114.085 22.9261C113.468 22.6736 112.934 22.2607 112.541 21.7324L113.025 21.121V27.2874L109.984 27.2845ZM115.795 20.6639C116.318 20.6739 116.833 20.5445 117.285 20.2897C117.715 20.0406 118.065 19.6784 118.294 19.2445C118.543 18.7688 118.668 18.2402 118.658 17.7058C118.669 17.1746 118.544 16.649 118.294 16.1773C118.061 15.7458 117.713 15.3844 117.285 15.1321C116.835 14.8703 116.319 14.7367 115.795 14.7463C115.288 14.7384 114.788 14.8684 114.352 15.1219C113.927 15.372 113.584 15.7344 113.362 16.1671C113.13 16.6483 113.009 17.1738 113.009 17.7058C113.009 18.2379 113.13 18.7634 113.362 19.2445C113.585 19.677 113.928 20.0393 114.352 20.2897C114.789 20.5433 115.29 20.6728 115.798 20.6639H115.795Z" fill="#BCF124"></path>
        <path d="M128.872 23.3256C127.701 23.3256 126.685 23.0728 125.824 22.5672C124.98 22.0791 124.289 21.3742 123.826 20.5292C123.349 19.6558 123.106 18.6789 123.118 17.6891C123.1 16.6825 123.354 15.6891 123.856 14.8097C124.328 13.987 125.014 13.2998 125.843 12.8168C126.701 12.3247 127.68 12.0729 128.674 12.0889C129.468 12.0746 130.257 12.212 130.997 12.4936C131.643 12.7459 132.226 13.1329 132.703 13.6276C133.167 14.1157 133.528 14.6893 133.763 15.3148C134.01 15.9813 134.133 16.6859 134.126 17.395C134.126 17.6061 134.116 17.8128 134.096 18.0166C134.081 18.1946 134.044 18.3701 133.985 18.5392H125.729V16.3629H132.27L130.836 17.3892C130.973 16.8939 130.966 16.3714 130.817 15.8796C130.681 15.4576 130.408 15.0905 130.039 14.8344C129.637 14.5691 129.16 14.4345 128.676 14.4501C128.197 14.4371 127.725 14.5682 127.324 14.8257C126.93 15.097 126.633 15.4832 126.477 15.9291C126.276 16.4994 126.2 17.1044 126.255 17.7051C126.19 18.2486 126.266 18.7993 126.477 19.3064C126.663 19.7509 126.988 20.127 127.405 20.3822C127.846 20.622 128.34 20.7536 128.844 20.7655C129.349 20.7775 129.849 20.6694 130.301 20.4506C130.677 20.2464 130.986 19.9439 131.195 19.5771L133.618 20.701C133.397 21.2357 133.047 21.7102 132.597 22.0839C132.115 22.4883 131.559 22.7995 130.958 23.001C130.287 23.2241 129.582 23.3339 128.872 23.3256Z" fill="#BCF124"></path>
        <path d="M135.906 23.0908V12.3185H138.737V14.4482L138.576 13.9751C138.799 13.3674 139.24 12.8594 139.817 12.5456C140.435 12.2249 141.127 12.065 141.826 12.0812C142.589 12.0647 143.344 12.2412 144.016 12.5936C144.633 12.9264 145.14 13.4224 145.481 14.0246C145.842 14.6816 146.023 15.4189 146.005 16.1645V23.0879H142.978V16.7977C142.988 16.4212 142.901 16.0482 142.724 15.7132C142.561 15.4169 142.317 15.1709 142.018 15.0028C141.693 14.8346 141.331 14.7466 140.963 14.7466C140.595 14.7466 140.233 14.8346 139.908 15.0028C139.605 15.1683 139.357 15.4147 139.192 15.7132C139.016 16.0484 138.929 16.4213 138.94 16.7977V23.0908H135.906Z" fill="#BCF124"></path>
        <path d="M55.6427 42.2267C54.6141 42.2359 53.5942 42.0413 52.6448 41.6546C51.7397 41.2829 50.9196 40.7385 50.2326 40.0533C49.541 39.362 48.9957 38.5443 48.6278 37.647C48.236 36.6874 48.0402 35.6623 48.0512 34.6292C48.0407 33.5939 48.2329 32.5662 48.6174 31.6013C48.9731 30.7061 49.5118 29.891 50.2006 29.206C50.8895 28.5209 51.7141 27.9803 52.624 27.617C53.5818 27.2347 54.6081 27.0431 55.6427 27.0537C56.6486 27.0381 57.6477 27.2192 58.5809 27.5865C59.4058 27.9138 60.1566 28.3965 60.7905 29.0072C61.371 29.5587 61.8131 30.2338 62.0823 30.9797L59.3169 32.2812C59.0532 31.5413 58.5546 30.9031 57.8937 30.4595C57.2328 30.016 56.4441 29.7902 55.6427 29.8152C54.8185 29.799 54.0065 30.011 53.3004 30.4266C52.6282 30.8356 52.0863 31.4199 51.7359 32.1138C51.351 32.8979 51.1611 33.7598 51.1817 34.6292C51.1621 35.5014 51.3519 36.3659 51.7359 37.1535C52.0836 37.8514 52.6259 38.4393 53.3004 38.8494C54.0062 39.2657 54.8184 39.4777 55.6427 39.4608C56.4441 39.4858 57.2328 39.26 57.8937 38.8164C58.5546 38.3728 59.0532 37.7346 59.3169 36.9948L62.0823 38.2977C61.8144 39.0477 61.3722 39.7268 60.7905 40.2818C60.1561 40.8916 59.4054 41.3738 58.5809 41.7011C57.6471 42.0659 56.6481 42.2446 55.6427 42.2267Z" fill="#BCF124"></path>
        <path d="M69.1252 42.2268C68.0842 42.2401 67.0575 41.9893 66.1453 41.499C65.2643 41.0261 64.5259 40.3353 64.0042 39.4959C63.482 38.6167 63.207 37.6184 63.207 36.6019C63.207 35.5855 63.482 34.5871 64.0042 33.708C64.5283 32.8726 65.2663 32.1852 66.1453 31.7136C67.0595 31.2349 68.0806 30.9844 69.1178 30.9844C70.155 30.9844 71.1761 31.2349 72.0903 31.7136C72.9646 32.1872 73.6986 32.8738 74.221 33.7065C74.7431 34.5856 75.0181 35.584 75.0181 36.6005C75.0181 37.6169 74.7431 38.6153 74.221 39.4945C73.7011 40.3318 72.9667 41.0222 72.0903 41.4975C71.1837 41.9884 70.1617 42.2398 69.1252 42.2268ZM69.1252 39.5643C69.6333 39.5758 70.1341 39.4455 70.569 39.1887C70.9847 38.9347 71.32 38.5729 71.5375 38.1435C71.7807 37.666 71.9024 37.1381 71.8921 36.6048C71.9029 36.0747 71.7812 35.5501 71.5375 35.0763C71.3155 34.65 70.9812 34.2893 70.569 34.0311C70.1361 33.769 69.6345 33.6354 69.1252 33.6468C68.6133 33.6362 68.1091 33.7696 67.6725 34.0311C67.2555 34.2871 66.9168 34.6482 66.6921 35.0763C66.4489 35.5502 66.3277 36.0749 66.339 36.6048C66.3282 37.138 66.4494 37.6659 66.6921 38.1435C66.9122 38.5748 67.2519 38.937 67.6725 39.1887C68.111 39.4448 68.6145 39.5749 69.1252 39.5643Z" fill="#BCF124"></path>
        <path d="M76.8008 41.9901V31.2177H79.6317V33.838L79.3337 33.4013C79.4947 32.5735 79.8845 31.9621 80.5034 31.5671C81.1681 31.1606 81.941 30.9549 82.7249 30.9761C83.5808 30.9595 84.4218 31.1965 85.1372 31.6559C85.4667 31.8614 85.7513 32.1284 85.9748 32.4417C86.1983 32.755 86.3562 33.1083 86.4395 33.4814L85.5708 33.56C85.9343 32.6798 86.4529 32.0286 87.1263 31.6064C87.834 31.1763 88.6547 30.9573 89.488 30.9761C90.2252 30.9617 90.9532 31.1385 91.5978 31.4885C92.2051 31.8254 92.7049 32.3202 93.0415 32.918C93.4031 33.5779 93.5828 34.3184 93.563 35.0667V41.9901H90.5294V35.697C90.5396 35.3227 90.46 34.9513 90.297 34.6125C90.151 34.3199 89.9232 34.0736 89.6399 33.9021C89.3259 33.734 88.9736 33.6459 88.6156 33.6459C88.2575 33.6459 87.9052 33.734 87.5912 33.9021C87.304 34.0715 87.0727 34.3181 86.9252 34.6125C86.7621 34.9513 86.6825 35.3227 86.6927 35.697V41.9901H83.6651V35.697C83.6753 35.3227 83.5957 34.9513 83.4327 34.6125C83.2868 34.3202 83.0596 34.074 82.7771 33.9021C82.4628 33.734 82.1103 33.6459 81.752 33.6459C81.3937 33.6459 81.0412 33.734 80.7269 33.9021C80.4396 34.0715 80.2084 34.3181 80.0609 34.6125C79.8978 34.9513 79.8182 35.3227 79.8284 35.697V41.9901H76.8008Z" fill="#BCF124"></path>
        <path d="M95.5547 46.1907V31.22H98.3856V33.2726L98.1234 32.6801C98.4928 32.1369 99.0083 31.7037 99.6134 31.4282C100.287 31.1243 101.022 30.9749 101.763 30.9915C102.765 30.9782 103.751 31.2378 104.611 31.7412C105.451 32.2335 106.147 32.9301 106.63 33.7632C107.132 34.6314 107.389 35.6146 107.375 36.612C107.387 37.6058 107.132 38.5854 106.637 39.4536C106.164 40.2944 105.471 40.9976 104.629 41.4916C103.756 41.9983 102.757 42.2579 101.743 42.2413C101.026 42.2475 100.316 42.1098 99.6566 41.8366C99.0399 41.5851 98.5058 41.1726 98.113 40.6444L98.5972 40.033V46.2052L95.5547 46.1907ZM101.366 39.5642C101.888 39.5742 102.403 39.4443 102.856 39.1886C103.286 38.94 103.636 38.5777 103.866 38.1434C104.115 37.6676 104.24 37.1391 104.229 36.6047C104.24 36.0736 104.115 35.5483 103.866 35.0762C103.632 34.6452 103.283 34.284 102.856 34.031C102.405 33.7699 101.889 33.6368 101.366 33.6467C100.858 33.6386 100.358 33.7681 99.9218 34.0208C99.4974 34.2714 99.1544 34.6343 98.9325 35.0675C98.6999 35.5484 98.5793 36.0736 98.5793 36.6055C98.5793 37.1373 98.6999 37.6626 98.9325 38.1434C99.1536 38.5768 99.4969 38.9394 99.9218 39.1886C100.359 39.4433 100.861 39.5734 101.37 39.5642H101.366Z" fill="#BCF124"></path>
        <path d="M112.552 42.2266C111.847 42.243 111.145 42.1156 110.493 41.8525C109.949 41.6315 109.486 41.2569 109.161 40.7767C108.843 40.28 108.682 39.7029 108.696 39.1172C108.686 38.5557 108.833 38.0021 109.121 37.5159C109.438 37.0168 109.888 36.6113 110.423 36.3426C111.107 35.9953 111.849 35.7681 112.613 35.6715L115.984 35.1387V37.3092L113.153 37.8012C112.793 37.8504 112.452 37.9898 112.163 38.2059C112.047 38.3082 111.955 38.4349 111.896 38.5766C111.836 38.7182 111.81 38.8711 111.819 39.024C111.813 39.1735 111.845 39.3221 111.912 39.4565C111.979 39.591 112.079 39.707 112.204 39.7941C112.481 39.9853 112.814 40.0824 113.153 40.0707C113.611 40.0798 114.063 39.9709 114.464 39.7548C114.832 39.5529 115.136 39.2557 115.343 38.8959C115.552 38.5321 115.66 38.121 115.656 37.7037V34.8956C115.658 34.6991 115.615 34.5048 115.529 34.327C115.443 34.1493 115.318 33.9928 115.161 33.8693C114.83 33.5927 114.383 33.4544 113.82 33.4544C113.31 33.4463 112.81 33.5995 112.396 33.8911C111.99 34.1781 111.679 34.5755 111.502 35.0339L109.079 33.9101C109.288 33.3164 109.642 32.7817 110.11 32.3524C110.599 31.9073 111.176 31.5649 111.806 31.3465C112.498 31.1039 113.229 30.9836 113.965 30.9913C114.814 30.9748 115.655 31.1434 116.429 31.4848C117.104 31.781 117.68 32.2555 118.094 32.8547C118.497 33.4603 118.704 34.1703 118.69 34.8927V41.9937H115.859V40.2541L116.545 40.1362C116.251 40.5778 115.891 40.9734 115.476 41.3095C115.086 41.6181 114.641 41.8522 114.163 41.9995C113.641 42.156 113.098 42.2326 112.552 42.2266Z" fill="#BCF124"></path>
        <path d="M120.91 41.9898V31.2174H123.741V33.3486L123.579 32.8755C123.802 32.268 124.243 31.7598 124.82 31.4445C125.438 31.125 126.13 30.9656 126.83 30.9816C127.593 30.9644 128.348 31.141 129.02 31.494C129.636 31.8264 130.143 32.3219 130.483 32.9236C130.845 33.581 131.025 34.3188 131.008 35.0649V41.9883H127.979V35.6967C127.989 35.3203 127.902 34.9475 127.727 34.6122C127.563 34.3155 127.318 34.0694 127.019 33.9018C126.695 33.7261 126.33 33.6376 125.96 33.6456C125.595 33.6413 125.236 33.7296 124.917 33.9018C124.613 34.0669 124.365 34.3134 124.2 34.6122C124.024 34.9472 123.937 35.3203 123.948 35.6967V41.9898H120.91Z" fill="#BCF124"></path>
        <path d="M134.52 46.3685C134.205 46.3687 133.891 46.3419 133.581 46.2884C133.304 46.2439 133.035 46.1575 132.784 46.0322V43.6069C133.003 43.6656 133.226 43.7113 133.45 43.7438C133.684 43.7823 133.92 43.8023 134.156 43.8035C134.752 43.8035 135.173 43.6579 135.429 43.39C135.687 43.1082 135.898 42.7884 136.055 42.4424L136.8 40.7654L136.759 43.2314L131.914 31.2188H135.165L138.375 39.7595H137.163L140.373 31.2188H143.627L138.902 42.9955C138.647 43.6743 138.279 44.3073 137.813 44.8691C137.414 45.3432 136.914 45.7267 136.348 45.9929C135.775 46.2493 135.15 46.3777 134.52 46.3685Z" fill="#BCF124"></path>
        <path d="M8.52715 18.9283H0C0.00709526 13.9114 2.05011 9.1019 5.6811 5.55439C9.31209 2.00688 14.2347 0.0108384 19.3697 0.00390625V8.335C16.4955 8.33962 13.7404 9.45718 11.7081 11.4428C9.67573 13.4284 8.53188 16.1202 8.52715 18.9283Z" fill="#BCF124"></path>
        <path d="M19.3736 46.1876C14.2386 46.1807 9.31599 44.1846 5.685 40.6371C2.05401 37.0896 0.0110015 32.2801 0.00390625 27.2632H8.53105C8.53105 29.3592 9.16722 31.4082 10.3591 33.151C11.551 34.8937 13.2451 36.2521 15.2271 37.0542C17.2092 37.8563 19.3901 38.0661 21.4942 37.6572C23.5984 37.2483 25.5311 36.239 27.0481 34.7569C28.5651 33.2748 29.5982 31.3865 30.0167 29.3307C30.4353 27.275 30.2204 25.1441 29.3995 23.2077C28.5785 21.2712 27.1882 19.6161 25.4044 18.4516C23.6206 17.2871 21.5234 16.6655 19.3781 16.6655V8.33008C24.5165 8.33008 29.4444 10.3244 33.0777 13.8742C36.7111 17.424 38.7523 22.2386 38.7523 27.2588C38.7523 32.2791 36.7111 37.0937 33.0777 40.6435C29.4444 44.1933 24.5165 46.1876 19.3781 46.1876H19.3736Z" fill="#BCF124"></path>
    </g>
    <defs>
        <clipPath id="svg1367429210_16292_clip0_3780_4926">
            <rect width="146" height="46.3691" fill="white"></rect>
        </clipPath>
    </defs>
</svg>